<svg width="696" height="614" viewBox="0 0 696 614" fill="none" xmlns="http://www.w3.org/2000/svg">
<circle cx="603" cy="342" r="35" fill="#55DE6A"/>
<path d="M598 354.5C598 357.262 595.2 359.5 591.75 359.5C588.3 359.5 585.5 357.262 585.5 354.5C585.5 351.74 588.3 349.5 591.75 349.5C595.2 349.5 598 351.74 598 354.5ZM620.5 349.5C620.5 352.262 617.7 354.5 614.25 354.5C610.8 354.5 608 352.262 608 349.5C608 346.737 610.8 344.5 614.25 344.5C617.7 344.5 620.5 346.737 620.5 349.5Z" fill="white"/>
<path fill-rule="evenodd" clip-rule="evenodd" d="M618 349.5V327H620.5V349.5H618ZM598 329.5V354.5H595.5V329.5H598Z" fill="white"/>
<path d="M595.5 329.262C595.5 328.643 595.73 328.045 596.146 327.585C596.562 327.126 597.133 326.837 597.75 326.775L617.75 324.775C618.098 324.74 618.449 324.778 618.781 324.887C619.113 324.997 619.418 325.174 619.677 325.408C619.936 325.643 620.143 325.929 620.285 326.248C620.427 326.568 620.5 326.913 620.5 327.262V329.5L595.5 332V329.262Z" fill="white"/>
<circle cx="492" cy="424" r="35" fill="#55DE6A"/>
<path d="M500.75 419.068C500.75 419.399 500.618 419.717 500.384 419.951C500.149 420.186 499.832 420.318 499.5 420.318C499.168 420.318 498.851 420.186 498.616 419.951C498.382 419.717 498.25 419.399 498.25 419.068C498.25 418.736 498.382 418.418 498.616 418.184C498.851 417.949 499.168 417.818 499.5 417.818C499.832 417.818 500.149 417.949 500.384 418.184C500.618 418.418 500.75 418.736 500.75 419.068ZM497 422.818C497.332 422.818 497.649 422.686 497.884 422.451C498.118 422.217 498.25 421.899 498.25 421.568C498.25 421.236 498.118 420.918 497.884 420.684C497.649 420.449 497.332 420.318 497 420.318C496.668 420.318 496.351 420.449 496.116 420.684C495.882 420.918 495.75 421.236 495.75 421.568C495.75 421.899 495.882 422.217 496.116 422.451C496.351 422.686 496.668 422.818 497 422.818ZM503.25 421.568C503.25 421.899 503.118 422.217 502.884 422.451C502.649 422.686 502.332 422.818 502 422.818C501.668 422.818 501.351 422.686 501.116 422.451C500.882 422.217 500.75 421.899 500.75 421.568C500.75 421.236 500.882 420.918 501.116 420.684C501.351 420.449 501.668 420.318 502 420.318C502.332 420.318 502.649 420.449 502.884 420.684C503.118 420.918 503.25 421.236 503.25 421.568ZM499.5 425.318C499.832 425.318 500.149 425.186 500.384 424.951C500.618 424.717 500.75 424.399 500.75 424.068C500.75 423.736 500.618 423.418 500.384 423.184C500.149 422.949 499.832 422.818 499.5 422.818C499.168 422.818 498.851 422.949 498.616 423.184C498.382 423.418 498.25 423.736 498.25 424.068C498.25 424.399 498.382 424.717 498.616 424.951C498.851 425.186 499.168 425.318 499.5 425.318ZM483.25 417.818H485.75V420.318H488.25V422.818H485.75V425.318H483.25V422.818H480.75V420.318H483.25V417.818Z" fill="white"/>
<path d="M479.627 412.15C479.585 411.991 479.574 411.826 479.595 411.663C479.617 411.5 479.67 411.343 479.752 411.2C479.834 411.058 479.944 410.933 480.074 410.833C480.205 410.733 480.354 410.66 480.512 410.618L485.342 409.323C485.509 409.278 485.682 409.269 485.852 409.294C486.022 409.32 486.184 409.381 486.33 409.472C486.475 409.564 486.6 409.684 486.697 409.826C486.794 409.968 486.86 410.129 486.892 410.298C488.53 410.1 490.267 410.005 492 410.005C493.8 410.005 495.607 410.108 497.3 410.32C497.329 410.149 497.394 409.985 497.49 409.84C497.586 409.695 497.711 409.572 497.857 409.478C498.004 409.384 498.168 409.322 498.34 409.295C498.512 409.268 498.687 409.278 498.855 409.323L503.685 410.618C503.869 410.667 504.04 410.758 504.184 410.883C504.327 411.009 504.44 411.165 504.514 411.341C504.588 411.517 504.621 411.708 504.61 411.898C504.598 412.089 504.544 412.274 504.45 412.44C504.8 412.665 505.115 412.915 505.382 413.183C506.402 414.203 507.332 415.808 508.12 417.613C508.92 419.445 509.617 421.59 510.132 423.778C510.647 425.965 510.982 428.228 511.042 430.293C511.102 432.333 510.895 434.298 510.222 435.818C509.916 436.5 509.401 437.068 508.753 437.441C508.104 437.813 507.354 437.971 506.61 437.893C505.02 437.725 503.822 436.908 502.827 435.96C502.215 435.38 501.587 434.645 500.98 433.94C500.665 433.57 500.355 433.21 500.06 432.883C498.24 430.873 496.067 429.065 492 429.065C487.932 429.065 485.76 430.873 483.94 432.883C483.642 433.21 483.335 433.57 483.02 433.94C482.412 434.645 481.785 435.378 481.172 435.96C480.177 436.91 478.98 437.725 477.39 437.893C476.646 437.971 475.896 437.813 475.247 437.441C474.599 437.068 474.084 436.5 473.777 435.818C473.102 434.298 472.897 432.33 472.955 430.293C473.015 428.228 473.355 425.968 473.867 423.778C474.382 421.59 475.082 419.445 475.88 417.613C476.667 415.808 477.597 414.203 478.615 413.183C478.942 412.862 479.305 412.581 479.697 412.345C479.669 412.281 479.645 412.215 479.627 412.148V412.15ZM484.717 413.18C482.525 413.643 481.045 414.288 480.385 414.95C479.695 415.64 478.917 416.908 478.172 418.613C477.382 420.466 476.756 422.386 476.302 424.35C475.823 426.322 475.539 428.337 475.455 430.365C475.4 432.253 475.61 433.785 476.062 434.805C476.155 435.004 476.308 435.168 476.499 435.276C476.69 435.384 476.91 435.429 477.127 435.405C477.945 435.32 478.652 434.908 479.45 434.15C479.98 433.645 480.45 433.093 480.987 432.465C481.32 432.075 481.677 431.658 482.087 431.205C484.152 428.923 486.945 426.568 492 426.568C497.055 426.568 499.847 428.923 501.912 431.205C502.322 431.658 502.68 432.075 503.012 432.465C503.547 433.093 504.02 433.645 504.55 434.15C505.345 434.908 506.052 435.32 506.872 435.408C507.091 435.431 507.311 435.385 507.502 435.277C507.693 435.169 507.845 435.004 507.937 434.805C508.387 433.785 508.6 432.255 508.545 430.365C508.461 428.337 508.177 426.322 507.697 424.35C507.244 422.386 506.618 420.466 505.827 418.613C505.082 416.908 504.302 415.638 503.615 414.95C502.955 414.288 501.475 413.643 499.282 413.18C497.157 412.733 494.59 412.505 492 412.505C489.41 412.505 486.842 412.733 484.717 413.18Z" fill="white"/>
<circle cx="498" cy="269" r="35" fill="#55DE6A"/>
<g clip-path="url(#clip0_152_3)">
<path d="M498.127 253.997H498.35C500.405 254.005 510.818 254.08 513.625 254.835C514.474 255.065 515.247 255.515 515.868 256.138C516.489 256.76 516.935 257.535 517.162 258.385C517.415 259.335 517.592 260.592 517.713 261.89L517.738 262.15L517.792 262.8L517.812 263.06C517.975 265.345 517.995 267.485 517.997 267.952V268.14C517.995 268.625 517.972 270.91 517.792 273.29L517.772 273.552L517.75 273.812C517.625 275.242 517.44 276.662 517.162 277.707C516.936 278.557 516.49 279.333 515.869 279.956C515.248 280.579 514.474 281.028 513.625 281.257C510.725 282.037 499.702 282.092 498.175 282.095H497.82C497.048 282.095 493.852 282.08 490.502 281.965L490.077 281.95L489.86 281.94L489.432 281.922L489.005 281.905C486.23 281.782 483.588 281.585 482.37 281.255C481.521 281.025 480.748 280.577 480.127 279.954C479.506 279.332 479.06 278.557 478.832 277.707C478.555 276.665 478.37 275.242 478.245 273.812L478.225 273.55L478.205 273.29C478.082 271.596 478.013 269.898 478 268.2V267.892C478.005 267.355 478.025 265.497 478.16 263.447L478.178 263.19L478.185 263.06L478.205 262.8L478.26 262.15L478.285 261.89C478.405 260.592 478.582 259.332 478.835 258.385C479.062 257.535 479.508 256.76 480.129 256.137C480.75 255.514 481.523 255.065 482.372 254.835C483.59 254.51 486.233 254.31 489.007 254.185L489.432 254.167L489.862 254.152L490.077 254.145L490.505 254.127C492.884 254.051 495.265 254.008 497.645 254H498.127V253.997ZM494 262.022V274.067L504.392 268.047L494 262.022Z" fill="white"/>
</g>
<circle cx="527" cy="171" r="35" fill="#55DE6A"/>
<path d="M545.46 166.288C545.586 166.165 545.683 166.018 545.747 165.854C545.81 165.691 545.836 165.515 545.825 165.34C545.814 165.166 545.765 164.995 545.682 164.841C545.598 164.687 545.483 164.553 545.343 164.448C540.013 160.572 533.59 158.49 527 158.5C520.148 158.5 513.808 160.705 508.658 164.448C508.517 164.552 508.401 164.687 508.318 164.841C508.234 164.995 508.185 165.165 508.173 165.34C508.162 165.515 508.189 165.69 508.252 165.854C508.314 166.017 508.412 166.165 508.538 166.288C508.756 166.503 509.044 166.633 509.35 166.656C509.655 166.679 509.959 166.593 510.208 166.413C515.095 162.885 520.972 160.991 527 161C533.268 161 539.068 163.005 543.79 166.41C544.303 166.78 545.015 166.735 545.46 166.288Z" fill="white"/>
<path d="M540.072 171.678C540.201 171.553 540.301 171.402 540.364 171.234C540.427 171.067 540.452 170.887 540.437 170.709C540.421 170.53 540.367 170.358 540.277 170.203C540.186 170.048 540.063 169.916 539.915 169.815C536.071 167.318 531.584 165.993 527 166C522.237 166 517.8 167.4 514.085 169.815C513.936 169.915 513.812 170.048 513.721 170.202C513.631 170.357 513.576 170.53 513.561 170.709C513.545 170.887 513.571 171.067 513.634 171.235C513.698 171.402 513.798 171.554 513.927 171.678C514.141 171.885 514.418 172.015 514.714 172.044C515.01 172.074 515.308 172.002 515.557 171.84C518.973 169.653 522.944 168.493 527 168.5C531.055 168.494 535.026 169.653 538.44 171.84C538.955 172.17 539.64 172.11 540.072 171.678ZM534.615 177.135C535.18 176.57 535.077 175.623 534.365 175.26C532.084 174.099 529.56 173.496 527 173.5C524.35 173.5 521.845 174.135 519.635 175.26C518.922 175.623 518.82 176.57 519.385 177.135L519.422 177.172C519.822 177.572 520.44 177.647 520.95 177.397C522.833 176.475 524.903 175.996 527 176C529.17 176 531.225 176.503 533.05 177.4C533.557 177.65 534.175 177.575 534.575 177.172L534.615 177.135ZM529.65 182.1C530.14 181.61 530.145 180.8 529.55 180.45C528.779 179.991 527.898 179.749 527 179.75C526.102 179.749 525.221 179.991 524.45 180.45C523.855 180.8 523.86 181.61 524.35 182.1L526.115 183.865C526.349 184.099 526.667 184.231 526.999 184.231C527.33 184.231 527.648 184.099 527.882 183.865L529.65 182.097V182.1Z" fill="white"/>
<circle cx="187" cy="412" r="35" fill="#55DE6A"/>
<g clip-path="url(#clip1_152_3)">
<path d="M187 392C181.696 392 176.609 394.107 172.858 397.858C169.107 401.609 167 406.696 167 412C167 417.304 169.107 422.391 172.858 426.142C176.609 429.893 181.696 432 187 432C192.304 432 197.391 429.893 201.142 426.142C204.893 422.391 207 417.304 207 412C207 406.696 204.893 401.609 201.142 397.858C197.391 394.107 192.304 392 187 392V392ZM196.172 420.845C196.087 420.985 195.975 421.107 195.843 421.203C195.71 421.3 195.56 421.369 195.401 421.407C195.241 421.446 195.076 421.452 194.914 421.426C194.752 421.401 194.597 421.343 194.458 421.257C189.76 418.39 183.85 417.74 176.887 419.332C176.565 419.406 176.226 419.349 175.946 419.172C175.666 418.996 175.467 418.716 175.394 418.394C175.32 418.071 175.378 417.733 175.554 417.452C175.73 417.172 176.01 416.974 176.333 416.9C183.952 415.16 190.488 415.908 195.757 419.13C196.039 419.303 196.241 419.58 196.319 419.902C196.397 420.223 196.344 420.562 196.172 420.845ZM198.62 415.4C198.403 415.752 198.056 416.004 197.654 416.1C197.251 416.196 196.827 416.129 196.475 415.912C191.1 412.61 182.905 411.653 176.545 413.583C176.158 413.674 175.75 413.615 175.405 413.417C175.06 413.219 174.804 412.896 174.688 412.516C174.573 412.135 174.607 411.724 174.784 411.368C174.961 411.012 175.267 410.736 175.64 410.597C182.903 408.395 191.933 409.462 198.105 413.255C198.458 413.471 198.71 413.819 198.807 414.221C198.903 414.623 198.836 415.047 198.62 415.4ZM198.83 409.73C192.385 405.9 181.75 405.547 175.595 407.415C175.12 407.559 174.608 407.508 174.17 407.274C173.733 407.04 173.406 406.642 173.263 406.167C173.119 405.693 173.169 405.18 173.403 404.743C173.637 404.305 174.035 403.979 174.51 403.835C181.573 401.693 193.318 402.105 200.74 406.51C201.167 406.763 201.476 407.176 201.599 407.657C201.722 408.138 201.648 408.648 201.395 409.075C201.142 409.502 200.729 409.811 200.248 409.934C199.767 410.057 199.257 409.983 198.83 409.73Z" fill="white"/>
</g>
<circle cx="94" cy="342" r="35" fill="#55DE6A"/>
<path d="M94 322C88.5725 322 87.89 322.025 85.7575 322.12C83.625 322.22 82.1725 322.555 80.9 323.05C79.5652 323.552 78.3562 324.34 77.3575 325.358C76.3402 326.357 75.5528 327.566 75.05 328.9C74.555 330.17 74.2175 331.625 74.12 333.75C74.025 335.887 74 336.568 74 342.003C74 347.433 74.025 348.113 74.12 350.245C74.22 352.375 74.555 353.827 75.05 355.1C75.5625 356.415 76.245 357.53 77.3575 358.642C78.4675 359.755 79.5825 360.44 80.8975 360.95C82.1725 361.445 83.6225 361.782 85.7525 361.88C87.8875 361.975 88.5675 362 94 362C99.4325 362 100.11 361.975 102.245 361.88C104.373 361.78 105.83 361.445 107.103 360.95C108.436 360.448 109.645 359.66 110.642 358.642C111.755 357.53 112.438 356.415 112.95 355.1C113.443 353.827 113.78 352.375 113.88 350.245C113.975 348.113 114 347.433 114 342C114 336.568 113.975 335.888 113.88 333.753C113.78 331.625 113.443 330.17 112.95 328.9C112.447 327.566 111.66 326.357 110.642 325.358C109.644 324.339 108.435 323.552 107.1 323.05C105.825 322.555 104.37 322.218 102.243 322.12C100.108 322.025 99.43 322 93.995 322H94.0025H94ZM92.2075 325.605H94.0025C99.3425 325.605 99.975 325.623 102.083 325.72C104.032 325.808 105.092 326.135 105.798 326.408C106.73 326.77 107.397 327.205 108.097 327.905C108.798 328.605 109.23 329.27 109.593 330.205C109.868 330.908 110.193 331.968 110.28 333.918C110.377 336.025 110.397 336.658 110.397 341.995C110.397 347.333 110.377 347.967 110.28 350.075C110.193 352.025 109.865 353.083 109.593 353.788C109.272 354.656 108.76 355.441 108.095 356.085C107.395 356.785 106.73 357.218 105.795 357.58C105.095 357.855 104.035 358.18 102.083 358.27C99.975 358.365 99.3425 358.388 94.0025 358.388C88.6625 358.388 88.0275 358.365 85.92 358.27C83.97 358.18 82.9125 357.855 82.2075 357.58C81.3387 357.26 80.5528 356.749 79.9075 356.085C79.2419 355.44 78.7293 354.654 78.4075 353.785C78.135 353.082 77.8075 352.023 77.72 350.073C77.625 347.965 77.605 347.333 77.605 341.99C77.605 336.65 77.625 336.02 77.72 333.912C77.81 331.962 78.135 330.903 78.41 330.198C78.7725 329.265 79.2075 328.597 79.9075 327.898C80.6075 327.197 81.2725 326.765 82.2075 326.403C82.9125 326.128 83.97 325.803 85.92 325.713C87.765 325.628 88.48 325.603 92.2075 325.6V325.605ZM104.677 328.925C104.362 328.925 104.05 328.987 103.759 329.108C103.468 329.228 103.203 329.405 102.98 329.628C102.758 329.851 102.581 330.115 102.46 330.407C102.34 330.698 102.278 331.01 102.278 331.325C102.278 331.64 102.34 331.952 102.46 332.243C102.581 332.535 102.758 332.799 102.98 333.022C103.203 333.245 103.468 333.422 103.759 333.542C104.05 333.663 104.362 333.725 104.677 333.725C105.314 333.725 105.924 333.472 106.375 333.022C106.825 332.572 107.077 331.962 107.077 331.325C107.077 330.688 106.825 330.078 106.375 329.628C105.924 329.178 105.314 328.925 104.677 328.925ZM94.0025 331.73C92.6402 331.709 91.2872 331.959 90.0224 332.465C88.7577 332.972 87.6063 333.725 86.6354 334.681C85.6645 335.637 84.8934 336.776 84.3671 338.033C83.8408 339.29 83.5698 340.639 83.5698 342.001C83.5698 343.364 83.8408 344.713 84.3671 345.969C84.8934 347.226 85.6645 348.366 86.6354 349.321C87.6063 350.277 88.7577 351.031 90.0224 351.537C91.2872 352.044 92.6402 352.294 94.0025 352.273C96.6989 352.23 99.2705 351.13 101.162 349.208C103.054 347.286 104.115 344.698 104.115 342.001C104.115 339.305 103.054 336.716 101.162 334.794C99.2705 332.873 96.6989 331.772 94.0025 331.73ZM94.0025 335.333C95.7708 335.333 97.4667 336.035 98.7171 337.285C99.9675 338.536 100.67 340.232 100.67 342C100.67 343.768 99.9675 345.464 98.7171 346.715C97.4667 347.965 95.7708 348.667 94.0025 348.667C92.2342 348.667 90.5383 347.965 89.2879 346.715C88.0375 345.464 87.335 343.768 87.335 342C87.335 340.232 88.0375 338.536 89.2879 337.285C90.5383 336.035 92.2342 335.333 94.0025 335.333Z" fill="white"/>
<circle cx="142" cy="199" r="35" fill="#55DE6A"/>
<g clip-path="url(#clip2_152_3)">
<path d="M162 199.122C162 188.007 153.045 178.997 142 178.997C130.95 179 121.995 188.007 121.995 199.125C121.995 209.167 129.31 217.492 138.87 219.002V204.94H133.795V199.125H138.875V194.687C138.875 189.645 141.862 186.86 146.43 186.86C148.62 186.86 150.907 187.252 150.907 187.252V192.202H148.385C145.902 192.202 145.127 193.755 145.127 195.347V199.122H150.672L149.787 204.937H145.125V219C154.685 217.49 162 209.165 162 199.122Z" fill="white"/>
</g>
<defs>
<clipPath id="clip0_152_3">
<rect width="40" height="40" fill="white" transform="translate(478 249)"/>
</clipPath>
<clipPath id="clip1_152_3">
<rect width="40" height="40" fill="white" transform="translate(167 392)"/>
</clipPath>
<clipPath id="clip2_152_3">
<rect width="40" height="40" fill="white" transform="translate(122 179)"/>
</clipPath>
</defs>
</svg>
