<svg width="170" height="45" viewBox="0 0 170 45" fill="none" xmlns="http://www.w3.org/2000/svg">
<path d="M60.024 21.712C60.024 20.24 59.6933 19.0667 59.032 18.192C58.3707 17.296 57.3893 16.848 56.088 16.848C55.6613 16.848 55.2667 16.8693 54.904 16.912C54.5413 16.9333 54.2427 16.9653 54.008 17.008V25.616C54.3067 25.808 54.6907 25.968 55.16 26.096C55.6507 26.224 56.1413 26.288 56.632 26.288C58.8933 26.288 60.024 24.7627 60.024 21.712ZM64.888 21.584C64.888 22.8853 64.728 24.0693 64.408 25.136C64.088 26.2027 63.6187 27.12 63 27.888C62.3813 28.656 61.6133 29.2533 60.696 29.68C59.7787 30.1067 58.7227 30.32 57.528 30.32C56.8667 30.32 56.248 30.256 55.672 30.128C55.096 30 54.5413 29.8187 54.008 29.584V35.92H49.24V13.744C49.6667 13.616 50.1573 13.4987 50.712 13.392C51.2667 13.264 51.8427 13.1573 52.44 13.072C53.0587 12.9867 53.6773 12.9227 54.296 12.88C54.936 12.816 55.544 12.784 56.12 12.784C57.5067 12.784 58.744 12.9973 59.832 13.424C60.92 13.8293 61.8373 14.416 62.584 15.184C63.3307 15.9307 63.896 16.848 64.28 17.936C64.6853 19.024 64.888 20.24 64.888 21.584ZM78.6965 17.392C78.2698 17.2853 77.7685 17.1787 77.1925 17.072C76.6165 16.944 75.9978 16.88 75.3365 16.88C75.0378 16.88 74.6752 16.912 74.2485 16.976C73.8432 17.0187 73.5338 17.072 73.3205 17.136V30H68.5525V14.064C69.4058 13.7653 70.4085 13.488 71.5605 13.232C72.7338 12.9547 74.0352 12.816 75.4645 12.816C75.7205 12.816 76.0298 12.8373 76.3925 12.88C76.7552 12.9013 77.1178 12.944 77.4805 13.008C77.8432 13.0507 78.2058 13.1147 78.5685 13.2C78.9312 13.264 79.2405 13.3493 79.4965 13.456L78.6965 17.392ZM97.484 21.552C97.484 22.8747 97.292 24.0907 96.908 25.2C96.524 26.288 95.9693 27.2267 95.244 28.016C94.5187 28.784 93.644 29.3813 92.62 29.808C91.6173 30.2347 90.4867 30.448 89.228 30.448C87.9907 30.448 86.86 30.2347 85.836 29.808C84.8333 29.3813 83.9693 28.784 83.244 28.016C82.5187 27.2267 81.9533 26.288 81.548 25.2C81.1427 24.0907 80.94 22.8747 80.94 21.552C80.94 20.2293 81.1427 19.024 81.548 17.936C81.9747 16.848 82.5507 15.92 83.276 15.152C84.0227 14.384 84.8973 13.7867 85.9 13.36C86.924 12.9333 88.0333 12.72 89.228 12.72C90.444 12.72 91.5533 12.9333 92.556 13.36C93.58 13.7867 94.4547 14.384 95.18 15.152C95.9053 15.92 96.4707 16.848 96.876 17.936C97.2813 19.024 97.484 20.2293 97.484 21.552ZM92.62 21.552C92.62 20.08 92.3213 18.928 91.724 18.096C91.148 17.2427 90.316 16.816 89.228 16.816C88.14 16.816 87.2973 17.2427 86.7 18.096C86.1027 18.928 85.804 20.08 85.804 21.552C85.804 23.024 86.1027 24.1973 86.7 25.072C87.2973 25.9253 88.14 26.352 89.228 26.352C90.316 26.352 91.148 25.9253 91.724 25.072C92.3213 24.1973 92.62 23.024 92.62 21.552ZM105.316 30C104.228 27.8667 103.119 25.3707 101.988 22.512C100.879 19.6533 99.8227 16.5387 98.82 13.168H103.876C104.089 14 104.335 14.9067 104.612 15.888C104.911 16.848 105.209 17.8293 105.508 18.832C105.828 19.8133 106.137 20.7733 106.436 21.712C106.756 22.6507 107.065 23.504 107.364 24.272C107.641 23.504 107.94 22.6507 108.26 21.712C108.58 20.7733 108.889 19.8133 109.188 18.832C109.508 17.8293 109.807 16.848 110.084 15.888C110.383 14.9067 110.639 14 110.852 13.168H115.78C114.777 16.5387 113.711 19.6533 112.58 22.512C111.471 25.3707 110.372 27.8667 109.284 30H105.316ZM118.334 13.744C119.144 13.5093 120.19 13.296 121.47 13.104C122.75 12.8907 124.094 12.784 125.502 12.784C126.931 12.784 128.115 12.976 129.054 13.36C130.014 13.7227 130.771 14.2453 131.326 14.928C131.88 15.6107 132.275 16.4213 132.51 17.36C132.744 18.2987 132.862 19.344 132.862 20.496V30H128.094V21.072C128.094 19.536 127.891 18.448 127.486 17.808C127.08 17.168 126.323 16.848 125.214 16.848C124.872 16.848 124.51 16.8693 124.126 16.912C123.742 16.9333 123.4 16.9653 123.102 17.008V30H118.334V13.744ZM136.378 21.712C136.378 20.2187 136.602 18.9173 137.049 17.808C137.519 16.6773 138.127 15.7387 138.874 14.992C139.62 14.2453 140.474 13.68 141.434 13.296C142.415 12.912 143.418 12.72 144.442 12.72C146.831 12.72 148.719 13.456 150.106 14.928C151.492 16.3787 152.186 18.5227 152.186 21.36C152.186 21.6373 152.175 21.9467 152.154 22.288C152.132 22.608 152.111 22.896 152.09 23.152H141.274C141.38 24.1333 141.839 24.912 142.65 25.488C143.46 26.064 144.548 26.352 145.914 26.352C146.788 26.352 147.642 26.2773 148.474 26.128C149.327 25.9573 150.02 25.7547 150.554 25.52L151.194 29.392C150.938 29.52 150.596 29.648 150.17 29.776C149.743 29.904 149.263 30.0107 148.73 30.096C148.218 30.2027 147.663 30.288 147.066 30.352C146.468 30.416 145.871 30.448 145.274 30.448C143.759 30.448 142.436 30.224 141.306 29.776C140.196 29.328 139.268 28.72 138.522 27.952C137.796 27.1627 137.252 26.2347 136.89 25.168C136.548 24.1013 136.378 22.9493 136.378 21.712ZM147.578 19.888C147.556 19.4827 147.482 19.088 147.354 18.704C147.247 18.32 147.066 17.9787 146.81 17.68C146.575 17.3813 146.266 17.136 145.882 16.944C145.519 16.752 145.06 16.656 144.506 16.656C143.972 16.656 143.514 16.752 143.13 16.944C142.746 17.1147 142.426 17.3493 142.17 17.648C141.914 17.9467 141.711 18.2987 141.562 18.704C141.434 19.088 141.338 19.4827 141.274 19.888H147.578ZM155.705 8.976L160.473 8.208V13.168H166.201V17.136H160.473V23.056C160.473 24.0587 160.644 24.8587 160.985 25.456C161.348 26.0533 162.062 26.352 163.129 26.352C163.641 26.352 164.164 26.3093 164.697 26.224C165.252 26.1173 165.753 25.9787 166.201 25.808L166.873 29.52C166.297 29.7547 165.657 29.9573 164.953 30.128C164.249 30.2987 163.385 30.384 162.361 30.384C161.06 30.384 159.982 30.2133 159.129 29.872C158.276 29.5093 157.593 29.0187 157.081 28.4C156.569 27.76 156.206 26.992 155.993 26.096C155.801 25.2 155.705 24.208 155.705 23.12V8.976Z" fill="url(#paint0_linear_229_11)"/>
<path d="M10.9245 35.5634L4.98113 22.7465L3 24.7183L9.60377 40L38 36.0563L36.0189 32.6056L10.9245 35.5634Z" fill="url(#paint1_linear_229_11)"/>
<path d="M12.9057 30.1408L6.96226 20.2817L9.60377 17.8169L14.8868 25.2113L32.0566 24.2254L34.0377 28.169L12.9057 30.1408Z" fill="url(#paint2_linear_229_11)"/>
<path d="M10.9245 15.8451L12.9057 13.3803L17.5283 16.831L27.434 15.8451L29.4151 20.2817L16.2075 21.2676L10.9245 15.8451Z" fill="url(#paint3_linear_229_11)"/>
<path d="M19.5094 11.9014L16.2075 9.92958L21.4906 5L24.7925 11.4085L19.5094 11.9014Z" fill="url(#paint4_linear_229_11)"/>
<defs>
<linearGradient id="paint0_linear_229_11" x1="107.5" y1="0" x2="107.5" y2="37" gradientUnits="userSpaceOnUse">
<stop stop-color="#2C2C2C"/>
<stop offset="1" stop-color="#4B4B4B"/>
</linearGradient>
<linearGradient id="paint1_linear_229_11" x1="13.566" y1="34.0845" x2="17.7648" y2="15.1648" gradientUnits="userSpaceOnUse">
<stop stop-color="#00A0D3"/>
<stop offset="1" stop-color="#8CD5EC"/>
</linearGradient>
<linearGradient id="paint2_linear_229_11" x1="13.566" y1="34.0845" x2="17.7648" y2="15.1648" gradientUnits="userSpaceOnUse">
<stop stop-color="#00A0D3"/>
<stop offset="1" stop-color="#8CD5EC"/>
</linearGradient>
<linearGradient id="paint3_linear_229_11" x1="13.566" y1="34.0845" x2="17.7648" y2="15.1648" gradientUnits="userSpaceOnUse">
<stop stop-color="#00A0D3"/>
<stop offset="1" stop-color="#8CD5EC"/>
</linearGradient>
<linearGradient id="paint4_linear_229_11" x1="13.566" y1="34.0845" x2="17.7648" y2="15.1648" gradientUnits="userSpaceOnUse">
<stop stop-color="#00A0D3"/>
<stop offset="1" stop-color="#8CD5EC"/>
</linearGradient>
</defs>
</svg>
